<svg xmlns="http://www.w3.org/2000/svg" version="1.1" xmlns:xlink="http://www.w3.org/1999/xlink" width="1000" height="1000"><g clip-path="url(#SvgjsClipPath1104)"><rect width="1000" height="1000" fill="#000000"></rect><g transform="matrix(1,0,0,1,0,0)"><svg xmlns="http://www.w3.org/2000/svg" version="1.1" xmlns:xlink="http://www.w3.org/1999/xlink" width="1000" height="1000"><svg xmlns="http://www.w3.org/2000/svg" version="1.1" xmlns:xlink="http://www.w3.org/1999/xlink" width="1000" height="1000"><g clip-path="url(#SvgjsClipPath1118)"><rect width="1000" height="1000" fill="#00000000"></rect><g transform="matrix(4.5,0,0,4.5,50,50)"><svg xmlns="http://www.w3.org/2000/svg" version="1.1" xmlns:xlink="http://www.w3.org/1999/xlink" width="200" height="200"><svg xmlns="http://www.w3.org/2000/svg" version="1.1" xmlns:xlink="http://www.w3.org/1999/xlink" viewBox="0 0 200 200"><rect width="200" height="200" fill="url('#gradient')"></rect><defs><linearGradient id="gradient" gradientTransform="rotate(45 0.5 0.5)"><stop offset="0%" stop-color="#00000000"></stop><stop offset="100%" stop-color="#00000000"></stop></linearGradient><clipPath id="SvgjsClipPath1118"><rect width="1000" height="1000" x="0" y="0" rx="500" ry="500"></rect></clipPath><clipPath id="SvgjsClipPath1104"><rect width="1000" height="1000" x="0" y="0" rx="500" ry="500"></rect></clipPath></defs><g><g fill="#16c60c" transform="matrix(6.809013668267455,0,0,6.809013668267455,6.952840758396064,144.25761228123847)" stroke="#16c60c" stroke-width="0"><path d="M9.08-7.79L3.74-5.95L9.08-4.15L9.08-1.15L0.45-4.67L0.45-7.27L9.08-10.78L9.08-7.79ZM17.11-14.22L12.25 1.22L9.91 1.22L14.77-14.22L17.11-14.22ZM18.30-4.13L23.61-5.98L18.30-7.78L18.30-10.77L26.88-7.26L26.88-4.66L18.30-1.14L18.30-4.13Z"></path></g></g></svg></svg></g></g></svg></svg></g></g></svg>