<svg xmlns="http://www.w3.org/2000/svg" style="display: none;">
  <symbol id="bars" viewBox="0 0 640 640">
    <path fill="currentColor" d="M96 160C96 142.3 110.3 128 128 128L512 128C529.7 128 544 142.3 544 160C544 177.7 529.7 192 512 192L128 192C110.3 192 96 177.7 96 160zM96 320C96 302.3 110.3 288 128 288L512 288C529.7 288 544 302.3 544 320C544 337.7 529.7 352 512 352L128 352C110.3 352 96 337.7 96 320zM544 480C544 497.7 529.7 512 512 512L128 512C110.3 512 96 497.7 96 480C96 462.3 110.3 448 128 448L512 448C529.7 448 544 462.3 544 480z"/>
  </symbol>
  <symbol id="user" viewBox="0 0 448 512">
    <path fill="currentColor" d="M224 256A128 128 0 1 0 224 0a128 128 0 1 0 0 256zm-45.7 48C79.8 304 0 383.8 0 482.3C0 498.7 13.3 512 29.7 512l388.6 0c16.4 0 29.7-13.3 29.7-29.7C448 383.8 368.2 304 269.7 304l-91.4 0z"/>
  </symbol>
  <symbol id="lightbulb" viewBox="0 0 640 640">
    <path fill="currentColor" d="M420.9 448C428.2 425.7 442.8 405.5 459.3 388.1C492 353.7 512 307.2 512 256C512 150 426 64 320 64C214 64 128 150 128 256C128 307.2 148 353.7 180.7 388.1C197.2 405.5 211.9 425.7 219.1 448L420.8 448zM416 496L224 496L224 512C224 556.2 259.8 592 304 592L336 592C380.2 592 416 556.2 416 512L416 496zM312 176C272.2 176 240 208.2 240 248C240 261.3 229.3 272 216 272C202.7 272 192 261.3 192 248C192 181.7 245.7 128 312 128C325.3 128 336 138.7 336 152C336 165.3 325.3 176 312 176z"/>
  </symbol>
  <symbol id="envelope" viewBox="0 0 640 640">
    <path fill="currentColor" d="M112 128C85.5 128 64 149.5 64 176C64 191.1 71.1 205.3 83.2 214.4L291.2 370.4C308.3 383.2 331.7 383.2 348.8 370.4L556.8 214.4C568.9 205.3 576 191.1 576 176C576 149.5 554.5 128 528 128L112 128zM64 260L64 448C64 483.3 92.7 512 128 512L512 512C547.3 512 576 483.3 576 448L576 260L377.6 408.8C343.5 434.4 296.5 434.4 262.4 408.8L64 260z"/>
  </symbol>
  <symbol id="laptop-code" viewBox="0 0 640 640">
    <path fill="currentColor" d="M64 160C64 124.7 92.7 96 128 96L512 96C547.3 96 576 124.7 576 160L576 400L512 400L512 160L128 160L128 400L64 400L64 160zM0 467.2C0 456.6 8.6 448 19.2 448L620.8 448C631.4 448 640 456.6 640 467.2C640 509.6 605.6 544 563.2 544L76.8 544C34.4 544 0 509.6 0 467.2zM281 273L250 304L281 335C290.4 344.4 290.4 359.6 281 368.9C271.6 378.2 256.4 378.3 247.1 368.9L199.1 320.9C189.7 311.5 189.7 296.3 199.1 287L247.1 239C256.5 229.6 271.7 229.6 281 239C290.3 248.4 290.4 263.6 281 272.9zM393 239L441 287C450.4 296.4 450.4 311.6 441 320.9L393 368.9C383.6 378.3 368.4 378.3 359.1 368.9C349.8 359.5 349.7 344.3 359.1 335L390.1 304L359.1 273C349.7 263.6 349.7 248.4 359.1 239.1C368.5 229.8 383.7 229.7 393 239.1z"/>
  </symbol>
  <symbol id="javascript" viewBox="0 0 630 630">
    <rect width="630" height="630" fill="#f7df1e"/>
    <path d="m423.2 492.19c12.69 20.72 29.2 35.95 58.4 35.95 24.53 0 40.2-12.26 40.2-29.2 0-20.3-16.1-27.49-43.1-39.3l-14.8-6.35c-42.72-18.2-71.1-41-71.1-89.2 0-44.4 33.83-78.2 86.7-78.2 37.64 0 64.7 13.1 84.2 47.4l-46.1 29.6c-10.15-18.2-21.1-25.37-38.1-25.37-17.34 0-28.33 11-28.33 25.37 0 17.76 11 24.95 36.4 35.95l14.8 6.34c50.3 21.57 78.7 43.56 78.7 93 0 53.3-41.87 82.5-98.1 82.5-54.98 0-90.5-26.2-107.88-60.54zm-209.13 5.13c9.3 16.5 17.76 30.45 38.1 30.45 19.45 0 31.72-7.61 31.72-37.2v-201.3h59.2v202.1c0 61.3-35.94 89.2-88.4 89.2-47.4 0-74.85-24.53-88.81-54.075z"/>
  </symbol>
  <symbol id="typescript" fill="none" viewBox="0 0 512 512">
    <rect fill="#3178c6" height="512" rx="50" width="512"/><rect fill="#3178c6" height="512" rx="50" width="512"/>
    <path clip-rule="evenodd" d="m316.939 407.424v50.061c8.138 4.172 17.763 7.3 28.875 9.386s22.823 3.129 35.135 3.129c11.999 0 23.397-1.147 34.196-3.442 10.799-2.294 20.268-6.075 28.406-11.342 8.138-5.266 14.581-12.15 19.328-20.65s7.121-19.007 7.121-31.522c0-9.074-1.356-17.026-4.069-23.857s-6.625-12.906-11.738-18.225c-5.112-5.319-11.242-10.091-18.389-14.315s-15.207-8.213-24.18-11.967c-6.573-2.712-12.468-5.345-17.685-7.9-5.217-2.556-9.651-5.163-13.303-7.822-3.652-2.66-6.469-5.476-8.451-8.448-1.982-2.973-2.974-6.336-2.974-10.091 0-3.441.887-6.544 2.661-9.308s4.278-5.136 7.512-7.118c3.235-1.981 7.199-3.52 11.894-4.615 4.696-1.095 9.912-1.642 15.651-1.642 4.173 0 8.581.313 13.224.938 4.643.626 9.312 1.591 14.008 2.894 4.695 1.304 9.259 2.947 13.694 4.928 4.434 1.982 8.529 4.276 12.285 6.884v-46.776c-7.616-2.92-15.937-5.084-24.962-6.492s-19.381-2.112-31.066-2.112c-11.895 0-23.163 1.278-33.805 3.833s-20.006 6.544-28.093 11.967c-8.086 5.424-14.476 12.333-19.171 20.729-4.695 8.395-7.043 18.433-7.043 30.114 0 14.914 4.304 27.638 12.912 38.172 8.607 10.533 21.675 19.45 39.204 26.751 6.886 2.816 13.303 5.579 19.25 8.291s11.086 5.528 15.415 8.448c4.33 2.92 7.747 6.101 10.252 9.543 2.504 3.441 3.756 7.352 3.756 11.733 0 3.233-.783 6.231-2.348 8.995s-3.939 5.162-7.121 7.196-7.147 3.624-11.894 4.771c-4.748 1.148-10.303 1.721-16.668 1.721-10.851 0-21.597-1.903-32.24-5.71-10.642-3.806-20.502-9.516-29.579-17.13zm-84.159-123.342h64.22v-41.082h-179v41.082h63.906v182.918h50.874z" fill="#fff" fill-rule="evenodd"/>
  </symbol>
  <symbol id="node" viewBox="0 0 640 640">
    <path fill="#539E43" d="M320.5 572C313.8 572 307 570.2 301.1 566.8L239.4 530.3C230.2 525.1 234.7 523.3 237.7 522.3C250 518 252.5 517.1 265.6 509.6C267 508.8 268.8 509.1 270.2 510L317.6 538.1C319.3 539.1 321.7 539.1 323.3 538.1L508 431.5C509.7 430.5 510.8 428.5 510.8 426.5L510.8 213.3C510.8 211.2 509.7 209.3 507.9 208.2L323.3 101.7C321.6 100.7 319.3 100.7 317.6 101.7L133.1 208.3C131.3 209.3 130.2 211.3 130.2 213.4L130.2 426.5C130.2 428.5 131.3 430.5 133.1 431.4L183.7 460.6C211.2 474.3 228 458.2 228 441.9L228 231.5C228 228.5 230.4 226.2 233.4 226.2L256.8 226.2C259.7 226.2 262.2 228.5 262.2 231.5L262.2 442C262.2 478.6 242.2 499.6 207.5 499.6C196.8 499.6 188.4 499.6 165 488L116.6 460.1C104.6 453.2 97.2 440.3 97.2 426.4L97.2 213.3C97.2 199.5 104.6 186.5 116.6 179.6L301.1 73C312.8 66.4 328.3 66.4 339.9 73L524.6 179.7C536.6 186.6 544 199.5 544 213.4L544 426.5C544 440.3 536.6 453.2 524.6 460.2L339.9 566.8C334 570.2 327.3 572 320.5 572zM469.6 361.9C469.6 322 442.6 311.4 385.9 303.9C328.5 296.3 322.7 292.4 322.7 279C322.7 267.9 327.6 253.1 370.1 253.1C408 253.1 422 261.3 427.8 286.9C428.3 289.3 430.5 291.1 433 291.1L457 291.1C458.5 291.1 459.9 290.5 460.9 289.4C461.9 288.3 462.4 286.8 462.3 285.3C458.6 241.2 429.3 220.7 370.1 220.7C317.4 220.7 286 242.9 286 280.2C286 320.6 317.3 331.8 367.8 336.8C428.3 342.7 433 351.6 433 363.5C433 384.1 416.4 392.9 377.5 392.9C328.6 392.9 317.9 380.6 314.3 356.3C313.9 353.7 311.7 351.8 309 351.8L285.1 351.8C282.1 351.8 279.8 354.2 279.8 357.1C279.8 388.2 296.7 425.3 377.6 425.3C436 425.2 469.6 402.1 469.6 361.9z"/>
  </symbol>
  <symbol id="vue" viewBox="0 0 261.76 226.69">
    <g transform="matrix(1.3333 0 0 -1.3333 -76.311 313.34)">
      <g transform="translate(178.06 235.01)">
        <path d="m0 0-22.669-39.264-22.669 39.264h-75.491l98.16-170.02 98.16 170.02z" fill="#41b883"/>
      </g>
      <g transform="translate(178.06 235.01)">
        <path d="m0 0-22.669-39.264-22.669 39.264h-36.227l58.896-102.01 58.896 102.01z" fill="#34495e"/>
      </g>
    </g>
  </symbol>
  <symbol id="react" viewBox="-11.5 -10.23174 23 20.46348">
    <circle cx="0" cy="0" r="2.05" fill="#61dafb"/>
    <g stroke="#61dafb" stroke-width="1" fill="none">
      <ellipse rx="11" ry="4.2"/>
      <ellipse rx="11" ry="4.2" transform="rotate(60)"/>
      <ellipse rx="11" ry="4.2" transform="rotate(120)"/>
    </g>
  </symbol>
  <symbol id="mongodb" viewBox="0 0 341 341" fill="none">
    <circle cx="170.5" cy="170.5" r="170.5" fill="#081E2B"/>
    <path d="M193.21 70.47C182.39 57.7 173.08 44.65 171.18 42C171.14 41.9443 171.088 41.8988 171.027 41.8675C170.966 41.8361 170.898 41.8198 170.83 41.8198C170.762 41.8198 170.694 41.8361 170.633 41.8675C170.572 41.8988 170.52 41.9443 170.48 42C168.59 44.68 159.28 57.73 148.48 70.5C55.77 188.55 163.09 268.22 163.09 268.22L163.96 268.83C164.78 281.15 166.8 298.83 166.8 298.83H174.87C174.87 298.83 176.87 281.19 177.7 268.83L178.58 268.14C178.58 268.14 285.9 188.55 193.21 70.47ZM170.84 266.47C170.84 266.47 166.03 262.37 164.73 260.31V260.09L170.55 131.53C170.563 131.459 170.601 131.394 170.656 131.347C170.712 131.301 170.782 131.275 170.855 131.275C170.928 131.275 170.998 131.301 171.054 131.347C171.109 131.394 171.147 131.459 171.16 131.53L177 260.11V260.33C175.7 262.33 170.89 266.49 170.89 266.49" fill="#00ED64"/>
  </symbol>
  <symbol id="tailwind" fill="none" viewBox="0 0 54 33">
    <g clip-path="url(#prefix__clip0)">
      <path fill="#38bdf8" fill-rule="evenodd" d="M27 0c-7.2 0-11.7 3.6-13.5 10.8 2.7-3.6 5.85-4.95 9.45-4.05 2.054.513 3.522 2.004 5.147 3.653C30.744 13.09 33.808 16.2 40.5 16.2c7.2 0 11.7-3.6 13.5-10.8-2.7 3.6-5.85 4.95-9.45 4.05-2.054-.513-3.522-2.004-5.147-3.653C36.756 3.11 33.692 0 27 0zM13.5 16.2C6.3 16.2 1.8 19.8 0 27c2.7-3.6 5.85-4.95 9.45-4.05 2.054.514 3.522 2.004 5.147 3.653C17.244 29.29 20.308 32.4 27 32.4c7.2 0 11.7-3.6 13.5-10.8-2.7 3.6-5.85 4.95-9.45 4.05-2.054-.513-3.522-2.004-5.147-3.653C23.256 19.31 20.192 16.2 13.5 16.2z" clip-rule="evenodd"/>
    </g>
    <defs>
      <clipPath id="prefix__clip0">
        <path fill="#fff" d="M0 0h54v32.4H0z"/>
      </clipPath>
    </defs>
  </symbol>
  <symbol id="restful-api" viewBox="0 0 512 512">
    <polygon points="256,90 380,162 380,302 256,374 132,302 132,162" fill="#00D26A" />
    <line x1="256" y1="24" x2="256" y2="90" stroke="#00D26A" stroke-width="20" stroke-linecap="round" />
    <polygon points="256,0 228,38 284,38" fill="#00D26A" />
    <line x1="256" y1="374" x2="256" y2="440" stroke="#00D26A" stroke-width="20" stroke-linecap="round" />
    <polygon points="228,440 284,440 256,480" fill="#00D26A" />
    <line x1="132" y1="232" x2="66" y2="232" stroke="#00D26A" stroke-width="20" stroke-linecap="round" />
    <polygon points="28,232 66,204 66,260" fill="#00D26A" />
    <line x1="380" y1="232" x2="446" y2="232" stroke="#00D26A" stroke-width="20" stroke-linecap="round" />
    <polygon points="484,232 446,204 446,260" fill="#00D26A" />
    <g transform="translate(256, 250)" text-anchor="middle">
      <text font-family="monospace" font-size="88" font-weight="900" fill="black" y="-12">REST</text>
      <text font-family="monospace" font-size="56" font-weight="900" fill="black" y="64">API</text>
    </g>
  </symbol>
  <symbol id="trello" viewBox="0 0 256 256" preserveAspectRatio="xMidYMid">
    <rect width="256" height="256" fill="#0079BF"/>
    <rect fill="url(#a)" width="256" height="256" rx="25"/><rect fill="#FFF" x="144.64" y="33.28" width="78.08" height="112" rx="12"/>
    <rect fill="#FFF" x="33.28" y="33.28" width="78.08" height="176" rx="12"/>
  </symbol>
  <symbol id="jest" viewBox="0 0 128 128">
    <path fill="#99425B" d="M124.129 63.02c0-7.692-5.828-14.165-13.652-16.012L128 .113H41.16l17.563 47.043c-7.578 1.996-13.164 8.356-13.164 15.903 0 5.546 3.058 10.464 7.703 13.496-1.832 2.367-3.953 4.55-6.356 6.62-4.523 3.848-9.539 6.805-14.957 8.766-4.89-2.996-7.008-8.285-5.094-13.02 7.457-2.07 12.88-8.394 12.88-15.827 0-9.133-8.192-16.532-18.22-16.532-10.066 0-18.253 7.434-18.253 16.57 0 4.513 2.035 8.653 5.297 11.61-.286.52-.57 1.035-.856 1.59C4.973 81.438 1.875 87.207.691 93.68c-2.363 12.941 1.508 23.336 10.84 29.215 5.258 3.293 11.047 4.957 17.282 4.957 10.714 0 21.597-4.883 32.109-9.618 7.5-3.363 15.242-6.879 22.863-8.578 2.813-.629 5.746-1 8.844-1.406 6.273-.813 12.754-1.664 18.582-4.734 6.805-3.586 11.45-9.579 12.797-16.457 1.015-5.29 0-10.614-2.61-15.274a15.35 15.35 0 002.73-8.765zm-7.945 0c0 5.14-4.606 9.32-10.27 9.32s-10.27-4.18-10.27-9.32c0-1.665.489-3.254 1.344-4.622.325-.52.735-1.035 1.14-1.48a8.517 8.517 0 011.427-1.219l.043-.039c.324-.222.691-.445 1.058-.664 0 0 .04 0 .04-.039.163-.074.327-.184.492-.258.039 0 .078-.039.12-.039.165-.07.368-.144.57-.219a8.78 8.78 0 00.571-.222c.04 0 .082-.04.121-.04.164-.034.328-.109.489-.144.043 0 .125-.039.164-.039.203-.035.367-.074.57-.11h.043l.61-.113c.042 0 .12 0 .163-.035.164 0 .325-.039.489-.039h.203c.203 0 .41-.035.652-.035h.531c.16 0 .286 0 .446.035h.082c.328.04.652.074.98.149 4.645.886 8.192 4.66 8.192 9.172zM52.527 7.508h64.102l-14.711 39.387c-.61.113-1.223.296-1.832.48l-15.484-28.66L69.074 47.19c-.613-.183-1.265-.296-1.914-.406zM81.664 59.8c-.773-3.477-2.73-6.582-5.5-8.875l8.438-15.457 8.515 15.789c-2.527 2.293-4.36 5.215-5.094 8.543zM61.25 53.96c.203-.04.367-.074.57-.113h.121c.164-.035.329-.035.489-.075h.164c.164 0 .285-.035.449-.035h1.59c.16 0 .285.035.406.035.082 0 .121 0 .203.04.164.035.285.035.45.074.038 0 .081 0 .163.035.204.039.407.074.57.113h.04c.164.035.328.07.488.145.043 0 .082.039.164.039.121.035.285.074.406.148.043 0 .082.035.125.035.16.075.325.114.489.188h.039c.203.07.367.144.531.258h.04c.163.074.327.183.491.257.04 0 .04.04.078.04.164.07.286.183.45.257l.043.035c.488.333.937.704 1.382 1.075l.043.035c.407.406.813.851 1.141 1.332 1.059 1.48 1.672 3.219 1.672 5.105 0 5.141-4.606 9.317-10.27 9.317s-10.27-4.176-10.27-9.317c-.042-4.328 3.259-7.988 7.743-9.023zm-40.102-.262c5.665 0 10.27 4.18 10.27 9.32 0 5.141-4.605 9.32-10.27 9.32-5.664 0-10.27-4.179-10.27-9.32 0-5.14 4.606-9.32 10.27-9.32zm94.79 32.067c-.895 4.73-4.118 8.875-8.844 11.351-4.442 2.332-9.903 3.07-15.649 3.809-3.136.406-6.437.851-9.617 1.554-8.476 1.887-16.625 5.586-24.531 9.133-10.106 4.551-19.645 8.84-28.484 8.84-4.606 0-8.723-1.183-12.633-3.66-8.965-5.621-8.52-16.16-7.457-21.93.976-5.402 3.707-10.468 6.316-15.312.16-.297.285-.555.445-.852.899.297 1.836.52 2.813.668-1.547 7.84 2.851 15.938 11.41 19.934l1.55.738 1.669-.555c7.133-2.293 13.734-6.027 19.562-11.02 3.301-2.812 6.114-5.843 8.477-9.136.937.149 1.875.188 2.812.188 8.477 0 15.606-5.29 17.645-12.391h6.844c2.039 7.137 9.171 12.39 17.648 12.39 3.383 0 6.52-.85 9.207-2.292 1.063 2.773 1.387 5.656.817 8.543zm0 0"/>
  </symbol>
  <symbol id="pdf" viewBox="0 0 384 512">
    <path fill="currentColor" d="M181.9 256.1c-5-16-4.9-46.9-2-46.9 8.4 0 7.6 36.9 2 46.9zm-1.7 47.2c-7.7 20.2-17.3 43.3-28.4 62.7 18.3-7 39-17.2 62.9-21.9-12.7-9.6-24.9-23.4-34.5-40.8zM86.1 428.1c0 .8 13.2-5.4 34.9-40.2-6.7 6.3-29.1 24.5-34.9 40.2zM248 160h136v328c0 13.3-10.7 24-24 24H24c-13.3 0-24-10.7-24-24V24C0 10.7 10.7 0 24 0h200v136c0 13.2 10.8 24 24 24zm-8 171.8c-20-12.2-33.3-29-42.7-53.8 4.5-18.5 11.6-46.6 6.2-64.2-4.7-29.4-42.4-26.5-47.8-6.8-5 18.3-.4 44.1 8.1 77-11.6 27.6-28.7 64.6-40.8 85.8-.1 0-.1.1-.2.1-27.1 13.9-73.6 44.5-54.5 68 5.6 6.9 16 10 21.5 10 17.9 0 35.7-18 61.1-61.8 25.8-8.5 54.1-19.1 79-23.2 21.7 11.8 47.1 19.5 64 19.5 29.2 0 31.2-32 19.7-43.4-13.9-13.6-54.3-9.7-73.6-7.2zM377 105L279 7c-4.5-4.5-10.6-7-17-7h-6v128h128v-6.1c0-6.3-2.5-12.4-7-16.9zm-74.1 255.3c4.1-2.7-2.5-11.9-42.8-9 37.1 15.8 42.8 9 42.8 9z"/>
  </symbol>
  <symbol id="github" viewBox="0 0 640 640">
    <path fill="currentColor" d="M237.9 461.4C237.9 463.4 235.6 465 232.7 465C229.4 465.3 227.1 463.7 227.1 461.4C227.1 459.4 229.4 457.8 232.3 457.8C235.3 457.5 237.9 459.1 237.9 461.4zM206.8 456.9C206.1 458.9 208.1 461.2 211.1 461.8C213.7 462.8 216.7 461.8 217.3 459.8C217.9 457.8 216 455.5 213 454.6C210.4 453.9 207.5 454.9 206.8 456.9zM251 455.2C248.1 455.9 246.1 457.8 246.4 460.1C246.7 462.1 249.3 463.4 252.3 462.7C255.2 462 257.2 460.1 256.9 458.1C256.6 456.2 253.9 454.9 251 455.2zM316.8 72C178.1 72 72 177.3 72 316C72 426.9 141.8 521.8 241.5 555.2C254.3 557.5 258.8 549.6 258.8 543.1C258.8 536.9 258.5 502.7 258.5 481.7C258.5 481.7 188.5 496.7 173.8 451.9C173.8 451.9 162.4 422.8 146 415.3C146 415.3 123.1 399.6 147.6 399.9C147.6 399.9 172.5 401.9 186.2 425.7C208.1 464.3 244.8 453.2 259.1 446.6C261.4 430.6 267.9 419.5 275.1 412.9C219.2 406.7 162.8 398.6 162.8 302.4C162.8 274.9 170.4 261.1 186.4 243.5C183.8 237 175.3 210.2 189 175.6C209.9 169.1 258 202.6 258 202.6C278 197 299.5 194.1 320.8 194.1C342.1 194.1 363.6 197 383.6 202.6C383.6 202.6 431.7 169 452.6 175.6C466.3 210.3 457.8 237 455.2 243.5C471.2 261.2 481 275 481 302.4C481 398.9 422.1 406.6 366.2 412.9C375.4 420.8 383.2 435.8 383.2 459.3C383.2 493 382.9 534.7 382.9 542.9C382.9 549.4 387.5 557.3 400.2 555C500.2 521.8 568 426.9 568 316C568 177.3 455.5 72 316.8 72zM169.2 416.9C167.9 417.9 168.2 420.2 169.9 422.1C171.5 423.7 173.8 424.4 175.1 423.1C176.4 422.1 176.1 419.8 174.4 417.9C172.8 416.3 170.5 415.6 169.2 416.9zM158.4 408.8C157.7 410.1 158.7 411.7 160.7 412.7C162.3 413.7 164.3 413.4 165 412C165.7 410.7 164.7 409.1 162.7 408.1C160.7 407.5 159.1 407.8 158.4 408.8zM190.8 444.4C189.2 445.7 189.8 448.7 192.1 450.6C194.4 452.9 197.3 453.2 198.6 451.6C199.9 450.3 199.3 447.3 197.3 445.4C195.1 443.1 192.1 442.8 190.8 444.4zM179.4 429.7C177.8 430.7 177.8 433.3 179.4 435.6C181 437.9 183.7 438.9 185 437.9C186.6 436.6 186.6 434 185 431.7C183.6 429.4 181 428.4 179.4 429.7z"/>
  </symbol>
  <symbol id="linkedin" viewBox="0 0 640 640">
    <path fill="currentColor" d="M160 96C124.7 96 96 124.7 96 160L96 480C96 515.3 124.7 544 160 544L480 544C515.3 544 544 515.3 544 480L544 160C544 124.7 515.3 96 480 96L160 96zM165 266.2L231.5 266.2L231.5 480L165 480L165 266.2zM236.7 198.5C236.7 219.8 219.5 237 198.2 237C176.9 237 159.7 219.8 159.7 198.5C159.7 177.2 176.9 160 198.2 160C219.5 160 236.7 177.2 236.7 198.5zM413.9 480L413.9 376C413.9 351.2 413.4 319.3 379.4 319.3C344.8 319.3 339.5 346.3 339.5 374.2L339.5 480L273.1 480L273.1 266.2L336.8 266.2L336.8 295.4L337.7 295.4C346.6 278.6 368.3 260.9 400.6 260.9C467.8 260.9 480.3 305.2 480.3 362.8L480.3 480L413.9 480z"/>
  </symbol>
  <symbol id="email" version="1.1" x="0px" y="0px" viewBox="0 0 100 100" enable-background="new 0 0 100 100" xml:space="preserve">
      <path fill="currentColor" d="M66.682,47.733L50.296,60.288L33.868,47.785l-18.352,18.25l0.013,5.547c0.002,1.598,1.389,2.888,3.089,2.881  l63.397-0.102c1.705,0.005,3.084-1.289,3.082-2.887l-0.008-5.539L66.682,47.733z">
      </path>
      <polygon fill="currentColor" points="29.972,44.821 15.469,33.781 15.506,59.205 "></polygon>
      <polygon fill="currentColor" points="70.572,44.76 85.078,59.097 85.04,33.678 "></polygon>
      <g>
          <path fill="currentColor" d="M81.941,24.296l-63.399,0.093c-1.704,0.004-3.085,1.295-3.082,2.893v1.239l34.828,26.508l34.743-26.612   v-1.239C85.027,25.579,83.643,24.291,81.941,24.296z M60.73,37.464c-0.323,0.896-0.776,1.703-1.365,2.422   c-0.594,0.715-1.299,1.294-2.135,1.743c-0.834,0.45-1.764,0.68-2.779,0.698c-1.158-0.002-2.042-0.279-2.644-0.843   c-0.478,0.226-0.979,0.42-1.501,0.595c-0.523,0.169-1.185,0.254-1.979,0.259c-0.51-0.002-0.988-0.073-1.429-0.217   c-0.443-0.139-0.838-0.357-1.171-0.665c-0.334-0.301-0.601-0.688-0.797-1.146c-0.201-0.46-0.303-1.012-0.306-1.651   c0-1.012,0.181-1.937,0.537-2.776c0.351-0.844,0.843-1.57,1.464-2.185c0.614-0.611,1.332-1.085,2.151-1.427   c0.82-0.348,1.694-0.52,2.637-0.52c0.714-0.005,1.414,0.046,2.108,0.144c0.689,0.094,1.338,0.248,1.943,0.454l-1.518,7.568   c0.162,0.118,0.426,0.174,0.794,0.171c0.584,0.003,1.106-0.162,1.569-0.487c0.463-0.329,0.844-0.757,1.155-1.277   c0.304-0.52,0.542-1.097,0.701-1.733c0.153-0.625,0.233-1.251,0.233-1.863c-0.002-1.705-0.562-3.012-1.674-3.919   c-1.113-0.908-2.68-1.355-4.695-1.354c-1.564,0.002-2.947,0.253-4.159,0.751c-1.217,0.5-2.244,1.17-3.075,2.013   c-0.833,0.839-1.47,1.813-1.903,2.905c-0.434,1.094-0.653,2.227-0.653,3.402c0.002,1.073,0.174,1.988,0.521,2.746   c0.341,0.753,0.806,1.377,1.395,1.86c0.588,0.479,1.276,0.833,2.063,1.051c0.787,0.227,1.627,0.335,2.515,0.335   c0.829-0.005,1.594-0.051,2.292-0.148c0.7-0.097,1.333-0.249,1.909-0.46c0.141,0.328,0.278,0.667,0.406,1.012   c0.124,0.349,0.242,0.694,0.334,1.038c-0.281,0.133-0.632,0.259-1.024,0.37c-0.4,0.11-0.831,0.202-1.289,0.269   c-0.461,0.067-0.949,0.121-1.467,0.16c-0.519,0.04-1.027,0.061-1.538,0.061c-1.223,0-2.383-0.161-3.478-0.485   c-1.102-0.328-2.06-0.827-2.889-1.51c-0.827-0.674-1.479-1.518-1.961-2.542c-0.477-1.025-0.719-2.249-0.72-3.662   c0-1.325,0.253-2.657,0.774-4.017c0.508-1.356,1.301-2.573,2.362-3.675c1.057-1.097,2.419-1.986,4.062-2.682   c1.642-0.695,3.596-1.048,5.851-1.052c1.209,0.001,2.353,0.153,3.424,0.452c1.067,0.31,2.012,0.771,2.815,1.397   c0.801,0.623,1.439,1.401,1.909,2.348c0.466,0.948,0.703,2.056,0.708,3.33C61.219,35.652,61.055,36.56,60.73,37.464z">
          </path>
          <path fill="currentColor" d="M51.15,34.096c-0.535,0-1.006,0.112-1.414,0.338c-0.417,0.227-0.765,0.527-1.055,0.897   c-0.292,0.372-0.512,0.792-0.661,1.29c-0.155,0.49-0.23,1-0.234,1.528c0.002,0.677,0.16,1.167,0.479,1.472   c0.314,0.302,0.726,0.449,1.243,0.446c0.323,0.003,0.602-0.021,0.838-0.064c0.229-0.044,0.485-0.109,0.762-0.187l1.034-5.612   c-0.177-0.044-0.343-0.072-0.498-0.087C51.491,34.1,51.324,34.095,51.15,34.096z">
          </path>
      </g>
  </symbol>
  <symbol id="download" viewBox="0 0 384 512">
    <path fill="currentColor" d="M64 0C28.7 0 0 28.7 0 64L0 448c0 35.3 28.7 64 64 64l256 0c35.3 0 64-28.7 64-64l0-288-128 0c-17.7 0-32-14.3-32-32L224 0 64 0zM256 0l0 128 128 0L256 0zM216 232l0 102.1 31-31c9.4-9.4 24.6-9.4 33.9 0s9.4 24.6 0 33.9l-72 72c-9.4 9.4-24.6 9.4-33.9 0l-72-72c-9.4-9.4-9.4-24.6 0-33.9s24.6-9.4 33.9 0l31 31L168 232c0-13.3 10.7-24 24-24s24 10.7 24 24z"/>
  </symbol>
  <symbol id="external-link" viewBox="0 0 640 640">
    <path fill="currentColor" d="M384 64C366.3 64 352 78.3 352 96C352 113.7 366.3 128 384 128L466.7 128L265.3 329.4C252.8 341.9 252.8 362.2 265.3 374.7C277.8 387.2 298.1 387.2 310.6 374.7L512 173.3L512 256C512 273.7 526.3 288 544 288C561.7 288 576 273.7 576 256L576 96C576 78.3 561.7 64 544 64L384 64zM144 160C99.8 160 64 195.8 64 240L64 496C64 540.2 99.8 576 144 576L400 576C444.2 576 480 540.2 480 496L480 416C480 398.3 465.7 384 448 384C430.3 384 416 398.3 416 416L416 496C416 504.8 408.8 512 400 512L144 512C135.2 512 128 504.8 128 496L128 240C128 231.2 135.2 224 144 224L224 224C241.7 224 256 209.7 256 192C256 174.3 241.7 160 224 160L144 160z"/>
  </symbol>
</svg>